# ProBuilder 4.2.3
# https://unity3d.com/unity/features/worldbuilding/probuilder
# 21.01.2021 17:02:38

mtllib ./Arch.mtl
o Arch

g Arch
v -1.375 -2.165064 -0.5000001
v -1.373287 -2.03418 -0.5000001
v -1.375 -2.165064 0.4999999
v -1.373287 -2.03418 0.4999999
v -0.8734579 -2.047268 -0.5000001
v -0.875 -2.165064 -0.5000001
v -0.8734579 -2.047268 0.4999999
v -0.875 -2.165064 0.4999999
v -1.368147 -1.903385 -0.5000001
v -1.368147 -1.903385 0.4999999
v -0.8688326 -1.929553 -0.5000001
v -0.8688326 -1.929553 0.4999999
v -1.359587 -1.772769 -0.5000001
v -1.359587 -1.772769 0.4999999
v -0.8611279 -1.811998 -0.5000001
v -0.8611279 -1.811998 0.4999999
v -1.34761 -1.642422 -0.5000001
v -1.34761 -1.642422 0.4999999
v -0.8503485 -1.694686 -0.5000001
v -0.8503485 -1.694686 0.4999999
v -1.332224 -1.512433 -0.5000001
v -1.332224 -1.512433 0.4999999
v -0.8365021 -1.577696 -0.5000001
v -0.8365021 -1.577696 0.4999999
v -1.313442 -1.382892 -0.5000001
v -1.313442 -1.382892 0.4999999
v -0.8195977 -1.461109 -0.5000001
v -0.8195977 -1.461109 0.4999999
v -1.291275 -1.253887 -0.5000001
v -1.291275 -1.253887 0.4999999
v -0.7996473 -1.345005 -0.5000001
v -0.7996473 -1.345005 0.4999999
v -1.265738 -1.125506 -0.5000001
v -1.265738 -1.125506 0.4999999
v -0.7766643 -1.229462 -0.5000001
v -0.7766643 -1.229462 0.4999999
v -1.23685 -0.9978375 -0.5000001
v -1.23685 -0.9978375 0.4999999
v -0.7506647 -1.11456 -0.5000001
v -0.7506647 -1.11456 0.4999999
v -1.204629 -0.8709691 -0.5000001
v -1.204629 -0.8709691 0.4999999
v -0.7216663 -1.000379 -0.5000001
v -0.7216663 -1.000379 0.4999999
v -1.169099 -0.7449875 -0.5000001
v -1.169099 -0.7449875 0.4999999
v -0.6896887 -0.8869952 -0.5000001
v -0.6896887 -0.8869952 0.4999999
v -1.130283 -0.6199794 -0.5000001
v -1.130283 -0.6199794 0.4999999
v -0.6547546 -0.7744879 -0.5000001
v -0.6547546 -0.7744879 0.4999999
v -1.088207 -0.49603 -0.5000001
v -1.088207 -0.49603 0.4999999
v -0.6168866 -0.6629333 -0.5000001
v -0.6168866 -0.6629333 0.4999999
v -1.042902 -0.3732246 -0.5000001
v -1.042902 -0.3732246 0.4999999
v -0.5761118 -0.5524086 -0.5000001
v -0.5761118 -0.5524086 0.4999999
v -0.9943976 -0.251647 -0.5000001
v -0.9943976 -0.251647 0.4999999
v -0.5324578 -0.4429888 -0.5000001
v -0.5324578 -0.4429888 0.4999999
v -0.9427271 -0.131381 -0.5000001
v -0.9427271 -0.131381 0.4999999
v -0.4859543 -0.3347495 -0.5000001
v -0.4859543 -0.3347495 0.4999999
v -0.8879261 -0.01250887 -0.5000001
v -0.8879261 -0.01250887 0.4999999
v -0.4366336 -0.2277645 -0.5000001
v -0.4366336 -0.2277645 0.4999999
v -0.8300328 0.1048882 -0.5000001
v -0.8300328 0.1048882 0.4999999
v -0.3845296 -0.122107 -0.5000001
v -0.3845296 -0.122107 0.4999999
v -0.7690859 0.2207294 -0.5000001
v -0.7690859 0.2207294 0.4999999
v -0.3296771 -0.01784992 -0.5000001
v -0.3296771 -0.01784992 0.4999999
v -0.7051268 0.3349357 -0.5000001
v -0.7051268 0.3349357 0.4999999
v -0.2721143 0.08493567 -0.5000001
v -0.2721143 0.08493567 0.4999999
v -0.6382008 0.4474285 -0.5000001
v -0.6382008 0.4474285 0.4999999
v -0.2118807 0.1861792 -0.5000001
v -0.2118807 0.1861792 0.4999999
v -0.5683527 0.558131 -0.5000001
v -0.5683527 0.558131 0.4999999
v -0.1490176 0.2858114 -0.5000001
v -0.1490176 0.2858114 0.4999999
v -0.4956307 0.6669669 -0.5000001
v -0.4956307 0.6669669 0.4999999
v -0.08356786 0.3837638 -0.5000001
v -0.08356786 0.3837638 0.4999999
v -0.420085 0.7738619 -0.5000001
v -0.420085 0.7738619 0.4999999
v -0.0155766 0.4799693 -0.5000001
v -0.0155766 0.4799693 0.4999999
v -0.3417666 0.8787427 -0.5000001
v -0.3417666 0.8787427 0.4999999
v 0.05491018 0.574362 -0.5000001
v 0.05491018 0.574362 0.4999999
v -0.2607296 0.9815376 -0.5000001
v -0.2607296 0.9815376 0.4999999
v 0.1278434 0.6668773 -0.5000001
v 0.1278434 0.6668773 0.4999999
v -0.1770298 1.082176 -0.5000001
v -0.1770298 1.082176 0.4999999
v 0.2031732 0.7574518 -0.5000001
v 0.2031732 0.7574518 0.4999999
v -0.09072399 1.180589 -0.5000001
v -0.09072399 1.180589 0.4999999
v 0.2808483 0.8460236 -0.5000001
v 0.2808483 0.8460236 0.4999999
v -0.001872063 1.276708 -0.5000001
v -0.001872063 1.276708 0.4999999
v 0.3608153 0.9325311 -0.5000001
v 0.3608153 0.9325311 0.4999999
v 0.08946609 1.37047 -0.5000001
v 0.08946609 1.37047 0.4999999
v 0.4430196 1.016916 -0.5000001
v 0.4430196 1.016916 0.4999999
v 0.1832273 1.461807 -0.5000001
v 0.1832273 1.461807 0.4999999
v 0.5274045 1.09912 -0.5000001
v 0.5274045 1.09912 0.4999999
v 0.2793472 1.55066 -0.5000001
v 0.2793472 1.55066 0.4999999
v 0.6139126 1.179088 -0.5000001
v 0.6139126 1.179088 0.4999999
v 0.3777599 1.636966 -0.5000001
v 0.3777599 1.636966 0.4999999
v 0.7024839 1.256763 -0.5000001
v 0.7024839 1.256763 0.4999999
v 0.4783978 1.720665 -0.5000001
v 0.4783978 1.720665 0.4999999
v 0.7930579 1.332092 -0.5000001
v 0.7930579 1.332092 0.4999999
v 0.581193 1.801702 -0.5000001
v 0.581193 1.801702 0.4999999
v 0.8855736 1.405025 -0.5000001
v 0.8855736 1.405025 0.4999999
v 0.6860735 1.880021 -0.5000001
v 0.6860735 1.880021 0.4999999
v 0.9799662 1.475512 -0.5000001
v 0.9799662 1.475512 0.4999999
v 0.7929688 1.955566 -0.5000001
v 0.7929688 1.955566 0.4999999
v 1.076172 1.543504 -0.5000001
v 1.076172 1.543504 0.4999999
v 0.9018047 2.028288 -0.5000001
v 0.9018047 2.028288 0.4999999
v 1.174124 1.608953 -0.5000001
v 1.174124 1.608953 0.4999999
v 1.012507 2.098136 -0.5000001
v 1.012507 2.098136 0.4999999
v 1.273756 1.671816 -0.5000001
v 1.273756 1.671816 0.4999999
v 1.125 2.165063 -0.5000001
v 1.125 2.165063 0.4999999
v 1.375 1.73205 -0.5000001
v 1.375 1.73205 0.4999999

vt 0 0
vt 0 0.130896
vt 1 0
vt 1 0.130896
vt 0 0.1243514
vt 0 0.006545026
vt -1 0.1243514
vt -1 0.006545026
vt 0 1
vt 0.5 1
vt 0.5 0
vt 0 0.2617471
vt 1 0.2617471
vt 0 0.2552034
vt 0 0.137397
vt -1 0.2552034
vt -1 0.137397
vt 0 0.3924636
vt 1 0.3924636
vt 0 0.3859181
vt 0 0.2681118
vt -1 0.3859181
vt -1 0.2681118
vt 0 0.5229561
vt 1 0.5229561
vt 0 0.5164109
vt 0 0.3986046
vt -1 0.5164109
vt -1 0.3986046
vt 0 0.522239
vt 0 0.653135
vt 1 0.522239
vt 1 0.653135
vt 0 0.6465892
vt 0 0.5287828
vt -1 0.6465892
vt -1 0.5287828
vt 0 0.6520151
vt 0 0.7829111
vt 1 0.6520151
vt 1 0.7829111
vt 0 0.7763664
vt 0 0.6585599
vt -1 0.7763664
vt -1 0.6585599
vt 0 0.7812996
vt 0 0.9121955
vt 1 0.7812996
vt 1 0.9121955
vt 0 0.9056505
vt 0 0.7878442
vt -1 0.9056505
vt -1 0.7878442
vt 0 0.9100037
vt 0 1.0409
vt 1 0.9100037
vt 1 1.0409
vt 0 1.034355
vt 0 0.916549
vt -1 1.034355
vt -1 0.916549
vt 0 1.038039
vt 0 1.168935
vt 1 1.038039
vt 1 1.168935
vt 0 1.16239
vt 0 1.044584
vt -1 1.16239
vt -1 1.044584
vt 0 1.165318
vt 0 1.296214
vt 1 1.165318
vt 1 1.296214
vt 0 1.28967
vt 0 1.171863
vt -1 1.28967
vt -1 1.171863
vt 0 1.291755
vt 0 1.422651
vt 1 1.291755
vt 1 1.422651
vt 0 1.416106
vt 0 1.2983
vt -1 1.416106
vt -1 1.2983
vt 0 1.41726
vt 0 1.548156
vt 1 1.41726
vt 1 1.548156
vt 0 1.54161
vt 0 1.423804
vt -1 1.54161
vt -1 1.423804
vt 0 1.672644
vt 1 1.541748
vt 1 1.672644
vt 0 1.666101
vt -1 1.666101
vt -1 1.548295
vt 0 1.665138
vt 0 1.796033
vt 1 1.665138
vt 1 1.796033
vt 0 1.789489
vt 0 1.671682
vt -1 1.789489
vt -1 1.671682
vt 0 1.78734
vt 0 1.918236
vt 1 1.78734
vt 1 1.918236
vt 0 1.91169
vt 0 1.793884
vt -1 1.91169
vt -1 1.793884
vt 0 1.908271
vt 0 2.039167
vt 1 1.908271
vt 1 2.039167
vt 0 2.032623
vt 0 1.914816
vt -1 2.032623
vt -1 1.914816
vt 0 2.02785
vt 0 2.158746
vt 1 2.02785
vt 1 2.158746
vt 0 2.152202
vt 0 2.034396
vt -1 2.152202
vt -1 2.034396
vt 0 2.145998
vt 0 2.276893
vt 1 2.145998
vt 1 2.276893
vt 0 2.270347
vt 0 2.15254
vt -1 2.270347
vt -1 2.15254
vt 0 2.262625
vt 0 2.393521
vt 1 2.262625
vt 1 2.393521
vt 0 2.386976
vt 0 2.269169
vt -1 2.386976
vt -1 2.269169
vt 0 2.377656
vt 0 2.508552
vt 1 2.377656
vt 1 2.508552
vt 0 2.502009
vt 0 2.384203
vt -1 2.502009
vt -1 2.384203
vt 0 2.491018
vt 0 2.621914
vt 1 2.491018
vt 1 2.621914
vt 0 2.615369
vt 0 2.497562
vt -1 2.615369
vt -1 2.497562
vt 0 2.602625
vt 0 2.733521
vt 1 2.602625
vt 1 2.733521
vt 0 2.726976
vt 0 2.60917
vt -1 2.726976
vt -1 2.60917
vt 0 2.712403
vt 0 2.843299
vt 1 2.712403
vt 1 2.843299
vt 0 2.836754
vt 0 2.718948
vt -1 2.836754
vt -1 2.718948
vt 0 2.820279
vt 0 2.951174
vt 1 2.820279
vt 1 2.951174
vt 0 2.944629
vt 0 2.826823
vt -1 2.944629
vt -1 2.826823
vt 0 2.926174
vt 0 3.05707
vt 1 2.926174
vt 1 3.05707
vt 0 3.050525
vt 0 2.932719
vt -1 3.050525
vt -1 2.932719
vt 0 3.030021
vt 0 3.160918
vt 1 3.030021
vt 1 3.160918
vt 0 3.154373
vt 0 3.036566
vt -1 3.154373
vt -1 3.036566
vt 0 3.131748
vt 0 3.262644
vt 1 3.131748
vt 1 3.262644
vt 0 3.256099
vt 0 3.138293
vt -1 3.256099
vt -1 3.138293
vt 0 3.231281
vt 0 3.362177
vt 1 3.231281
vt 1 3.362177
vt 0 3.355634
vt 0 3.237827
vt -1 3.355634
vt -1 3.237827
vt 0 3.328557
vt 0 3.459453
vt 1 3.328557
vt 1 3.459453
vt 0 3.452905
vt 0 3.335099
vt -1 3.452905
vt -1 3.335099
vt 0 3.423504
vt 0 3.5544
vt 1 3.423504
vt 1 3.5544
vt 0 3.547854
vt 0 3.430048
vt -1 3.547854
vt -1 3.430048
vt -3.516058 0
vt -3.646954 0
vt -3.516058 1
vt -3.646954 1
vt 3.640413 0
vt 3.522606 0
vt 3.640413 1
vt 3.522606 1
vt -3.60617 0
vt -3.737066 0
vt -3.60617 1
vt -3.737066 1
vt 3.730518 0
vt 3.612712 0
vt 3.730518 1
vt 3.612712 1
vt -3.693748 0
vt -3.824644 0
vt -3.693748 1
vt -3.824644 1
vt 3.818102 0
vt 3.700295 0
vt 3.818102 1
vt 3.700295 1
vt -3.778762 0
vt -3.909657 0
vt -3.778762 1
vt -3.909657 1
vt 3.903113 0
vt 3.785308 0
vt 3.903113 1
vt 3.785308 1
vt -3.861135 0
vt -3.992032 0
vt -3.861135 1
vt -3.992032 1
vt 3.985485 0
vt 3.867678 0
vt 3.985485 1
vt 3.867678 1
vt -3.940825 0
vt -4.071721 0
vt -3.940825 1
vt -4.071721 1
vt 4.065178 0
vt 3.947371 0
vt 4.065178 1
vt 3.947371 1
vt -4.017756 0
vt -4.148652 0
vt -4.017756 1
vt -4.148652 1
vt 4.142108 0
vt 4.024302 0
vt 4.142108 1
vt 4.024302 1
vt -4.091902 0
vt -4.222797 0
vt -4.091902 1
vt -4.222797 1
vt 4.216251 0
vt 4.098445 0
vt 4.216251 1
vt 4.098445 1
vt -4.163193 0
vt -4.294088 0
vt -4.163193 1
vt -4.294088 1
vt 4.287542 0
vt 4.169736 0
vt 4.287542 1
vt 4.169736 1
vt -4.231584 0
vt -4.362481 0
vt -4.231584 1
vt -4.362481 1
vt 4.355936 0
vt 4.238129 0
vt 4.355936 1
vt 4.238129 1
vt -1 2
vt -1 2.5
vt 0 2
vt 0 2.5
vt 0.001713276 0.1308848
vt 0.5015421 0.1177963
vt -0.001713276 0.1308848
vt -0.5015421 0.1177963
vt -0.5 0
vt 0.006852627 0.2616798
vt 0.5061674 0.2355118
vt -0.006852627 0.2616798
vt -0.5061674 0.2355118
vt 0.01541328 0.3922955
vt 0.5138721 0.3530659
vt -0.01541328 0.3922955
vt -0.5138721 0.3530659
vt 0.02739048 0.5226423
vt 0.5246515 0.4703781
vt -0.02739048 0.5226423
vt -0.5246515 0.4703781
vt 0.04277563 0.652631
vt 0.5384979 0.5873679
vt -0.04277563 0.652631
vt -0.5384979 0.5873679
vt 0.06155825 0.7821724
vt 0.5554023 0.7039552
vt -0.06155825 0.7821724
vt -0.5554023 0.7039552
vt 0.08372545 0.9111776
vt 0.5753527 0.8200598
vt -0.08372545 0.9111776
vt -0.5753527 0.8200598
vt 0.109262 1.039559
vt 0.5983357 0.9356027
vt -0.109262 1.039559
vt -0.5983357 0.9356027
vt 0.1381502 1.167227
vt 0.6243353 1.050504
vt -0.1381502 1.167227
vt -0.6243353 1.050504
vt 0.1703711 1.294095
vt 0.6533337 1.164686
vt -0.1703711 1.294095
vt -0.6533337 1.164686
vt 0.2059011 1.420077
vt 0.6853113 1.278069
vt -0.2059011 1.420077
vt -0.6853113 1.278069
vt 0.2447171 1.545085
vt 0.7202454 1.390576
vt -0.2447171 1.545085
vt -0.7202454 1.390576
vt 0.2867928 1.669034
vt 0.7581134 1.502131
vt -0.2867928 1.669034
vt -0.7581134 1.502131
vt 0.332098 1.79184
vt 0.7988882 1.612656
vt -0.332098 1.79184
vt -0.7988882 1.612656
vt 0.3806024 1.913417
vt 0.8425422 1.722076
vt -0.3806024 1.913417
vt -0.8425422 1.722076
vt 0.4322729 2.033683
vt 0.8890457 1.830315
vt -0.4322729 2.033683
vt -0.8890457 1.830315
vt 0.4870739 2.152555
vt 0.9383664 1.9373
vt -0.4870739 2.152555
vt -0.9383664 1.9373
vt 0.5449672 2.269953
vt 0.9904704 2.042957
vt -0.5449672 2.269953
vt -0.9904704 2.042957
vt 0.6059141 2.385794
vt 1.045323 2.147214
vt -0.6059141 2.385794
vt -1.045323 2.147214
vt 0.6698732 2.5
vt 1.102886 2.25
vt -0.6698732 2.5
vt -1.102886 2.25
vt 0.7367992 2.612493
vt 1.163119 2.351243
vt -0.7367992 2.612493
vt -1.163119 2.351243
vt 0.8066473 2.723195
vt 1.225982 2.450876
vt -0.8066473 2.723195
vt -1.225982 2.450876
vt 0.8793693 2.832031
vt 1.291432 2.548828
vt -0.8793693 2.832031
vt -1.291432 2.548828
vt 0.954915 2.938926
vt 1.359423 2.645034
vt -0.954915 2.938926
vt -1.359423 2.645034
vt 1.033233 3.043807
vt 1.42991 2.739426
vt -1.033233 3.043807
vt -1.42991 2.739426
vt 1.11427 3.146602
vt 1.502843 2.831942
vt -1.11427 3.146602
vt -1.502843 2.831942
vt 1.19797 3.24724
vt 1.578173 2.922516
vt -1.19797 3.24724
vt -1.578173 2.922516
vt 1.284276 3.345653
vt 1.655848 3.011088
vt -1.284276 3.345653
vt -1.655848 3.011088
vt 1.373128 3.441773
vt 1.735815 3.097595
vt -1.373128 3.441773
vt -1.735815 3.097595
vt 1.464466 3.535534
vt 1.81802 3.18198
vt -1.464466 3.535534
vt -1.81802 3.18198
vt 1.558227 3.626872
vt 1.902405 3.264184
vt -1.558227 3.626872
vt -1.902405 3.264184
vt 1.654347 3.715724
vt 1.988913 3.344152
vt -1.654347 3.715724
vt -1.988913 3.344152
vt 1.75276 3.80203
vt 2.077484 3.421827
vt -1.75276 3.80203
vt -2.077484 3.421827
vt 1.853398 3.88573
vt 2.168058 3.497157
vt -1.853398 3.88573
vt -2.168058 3.497157
vt 1.956193 3.966767
vt 2.260574 3.57009
vt -1.956193 3.966767
vt -2.260574 3.57009
vt 2.061074 4.045085
vt 2.354966 3.640577
vt -2.061074 4.045085
vt -2.354966 3.640577
vt 2.167969 4.120631
vt 2.451172 3.708568
vt -2.167969 4.120631
vt -2.451172 3.708568
vt 2.276805 4.193353
vt 2.549124 3.774018
vt -2.276805 4.193353
vt -2.549124 3.774018
vt 2.387507 4.263201
vt 2.648756 3.836881
vt -2.387507 4.263201
vt -2.648756 3.836881
vt 2.5 4.330127
vt 2.75 3.897115
vt -2.5 4.330127
vt -2.75 3.897115

vn -0.9999143 0.01308885 0
vn 0.9999143 -0.01309006 0
vn 0 -1 0
vn -0.999229 0.03926284 0
vn 0.999229 -0.03926203 0
vn -0.9978591 0.06540048 0
vn 0.997859 -0.06540166 0
vn -0.9958049 0.09150161 0
vn 0.995805 -0.09150082 0
vn -0.9930685 0.1175372 0
vn 0.9930687 -0.1175353 0
vn -0.9896514 0.1434927 0
vn 0.9896514 -0.1434927 0
vn -0.985556 0.16935 0
vn 0.9855561 -0.1693493 0
vn -0.9807853 0.1950902 0
vn 0.980785 -0.1950917 0
vn -0.9753425 0.2206963 0
vn 0.9753423 -0.2206975 0
vn -0.9692303 0.2461558 0
vn 0.9692311 -0.2461528 0
vn -0.962456 0.2714377 0
vn 0.9624547 -0.2714422 0
vn -0.9550201 0.2965411 0
vn 0.955021 -0.2965384 0
vn -0.946929 0.3214428 0
vn 0.9469292 -0.3214423 0
vn -0.9381915 0.3461168 0
vn 0.9381911 -0.3461176 0
vn -0.9288101 0.3705561 0
vn 0.9288099 -0.3705566 0
vn -0.9187906 0.3947453 0
vn 0.9187903 -0.3947458 0
vn -0.9081427 0.4186608 0
vn 0.9081433 -0.4186594 0
vn -0.8968744 0.4422853 0
vn 0.8968744 -0.4422853 0
vn -0.8849878 0.4656143 0
vn 0.8849871 -0.4656157 0
vn -0.8724943 0.4886242 0
vn 0.8724955 -0.4886221 0
vn -0.859407 0.511292 0
vn 0.8594062 -0.5112934 0
vn -0.8457279 0.5336144 0
vn 0.8457285 -0.5336135 0
vn -0.8314692 0.5555708 0
vn 0.8314695 -0.5555704 0
vn -0.8166419 0.5771446 0
vn 0.8166417 -0.5771449 0
vn -0.8012533 0.5983253 0
vn 0.8012524 -0.5983266 0
vn -0.7853166 0.6190944 0
vn 0.7853166 -0.6190943 0
vn -0.7688425 0.6394383 0
vn 0.7688429 -0.6394378 0
vn -0.7518399 0.6593457 0
vn 0.7518409 -0.6593446 0
vn -0.7343231 0.6788001 0
vn 0.7343214 -0.6788019 0
vn -0.7163018 0.6977906 0
vn 0.7163011 -0.6977913 0
vn -0.6977887 0.7163036 0
vn 0.6977903 -0.7163021 0
vn -0.6788031 0.7343203 0
vn 0.6788021 -0.7343213 0
vn -0.6593446 0.7518409 0
vn 0.6593454 -0.7518402 0
vn -0.6394392 0.7688417 0
vn 0.6394398 -0.7688412 0
vn -0.6190935 0.7853173 0
vn 0.6190923 -0.7853182 0
vn -0.5983262 0.8012527 0
vn 0.5983275 -0.8012516 0
vn -0.5771438 0.8166425 0
vn 0.577144 -0.8166425 0
vn -0.5555708 0.8314692 0
vn 0.5555704 -0.8314695 0
vn -0.5336152 0.8457273 0
vn 0.5336145 -0.8457279 0
vn -0.5112932 0.8594064 0
vn 0.5112931 -0.8594064 0
vn 0.8660254 0.5 0
vn 0 0 1
vn 0 0 -1

usemtl ProBuilder/Standard_Vertex_Color
f 3/3/1 4/4/1 2/2/1 1/1/1
f 7/7/2 8/8/2 6/6/2 5/5/2
f 1/1/3 6/11/3 8/10/3 3/9/3
f 4/4/4 10/13/4 9/12/4 2/2/4
f 12/16/5 7/17/5 5/15/5 11/14/5
f 10/13/6 14/19/6 13/18/6 9/12/6
f 16/22/7 12/23/7 11/21/7 15/20/7
f 14/19/8 18/25/8 17/24/8 13/18/8
f 20/28/9 16/29/9 15/27/9 19/26/9
f 18/32/10 22/33/10 21/31/10 17/30/10
f 24/36/11 20/37/11 19/35/11 23/34/11
f 22/40/12 26/41/12 25/39/12 21/38/12
f 28/44/13 24/45/13 23/43/13 27/42/13
f 26/48/14 30/49/14 29/47/14 25/46/14
f 32/52/15 28/53/15 27/51/15 31/50/15
f 30/56/16 34/57/16 33/55/16 29/54/16
f 36/60/17 32/61/17 31/59/17 35/58/17
f 34/64/18 38/65/18 37/63/18 33/62/18
f 40/68/19 36/69/19 35/67/19 39/66/19
f 38/72/20 42/73/20 41/71/20 37/70/20
f 44/76/21 40/77/21 39/75/21 43/74/21
f 42/80/22 46/81/22 45/79/22 41/78/22
f 48/84/23 44/85/23 43/83/23 47/82/23
f 46/88/24 50/89/24 49/87/24 45/86/24
f 52/92/25 48/93/25 47/91/25 51/90/25
f 50/95/26 54/96/26 53/94/26 49/90/26
f 56/98/27 52/99/27 51/87/27 55/97/27
f 54/102/28 58/103/28 57/101/28 53/100/28
f 60/106/29 56/107/29 55/105/29 59/104/29
f 58/110/30 62/111/30 61/109/30 57/108/30
f 64/114/31 60/115/31 59/113/31 63/112/31
f 62/118/32 66/119/32 65/117/32 61/116/32
f 68/122/33 64/123/33 63/121/33 67/120/33
f 66/126/34 70/127/34 69/125/34 65/124/34
f 72/130/35 68/131/35 67/129/35 71/128/35
f 70/134/36 74/135/36 73/133/36 69/132/36
f 76/138/37 72/139/37 71/137/37 75/136/37
f 74/142/38 78/143/38 77/141/38 73/140/38
f 80/146/39 76/147/39 75/145/39 79/144/39
f 78/150/40 82/151/40 81/149/40 77/148/40
f 84/154/41 80/155/41 79/153/41 83/152/41
f 82/158/42 86/159/42 85/157/42 81/156/42
f 88/162/43 84/163/43 83/161/43 87/160/43
f 86/166/44 90/167/44 89/165/44 85/164/44
f 92/170/45 88/171/45 87/169/45 91/168/45
f 90/174/46 94/175/46 93/173/46 89/172/46
f 96/178/47 92/179/47 91/177/47 95/176/47
f 94/182/48 98/183/48 97/181/48 93/180/48
f 100/186/49 96/187/49 95/185/49 99/184/49
f 98/190/50 102/191/50 101/189/50 97/188/50
f 104/194/51 100/195/51 99/193/51 103/192/51
f 102/198/52 106/199/52 105/197/52 101/196/52
f 108/202/53 104/203/53 103/201/53 107/200/53
f 106/206/54 110/207/54 109/205/54 105/204/54
f 112/210/55 108/211/55 107/209/55 111/208/55
f 110/214/56 114/215/56 113/213/56 109/212/56
f 116/218/57 112/219/57 111/217/57 115/216/57
f 114/222/58 118/223/58 117/221/58 113/220/58
f 120/226/59 116/227/59 115/225/59 119/224/59
f 118/230/60 122/231/60 121/229/60 117/228/60
f 124/234/61 120/235/61 119/233/61 123/232/61
f 122/238/62 126/239/62 125/237/62 121/236/62
f 128/242/63 124/243/63 123/241/63 127/240/63
f 126/246/64 130/247/64 129/245/64 125/244/64
f 132/250/65 128/251/65 127/249/65 131/248/65
f 130/254/66 134/255/66 133/253/66 129/252/66
f 136/258/67 132/259/67 131/257/67 135/256/67
f 134/262/68 138/263/68 137/261/68 133/260/68
f 140/266/69 136/267/69 135/265/69 139/264/69
f 138/270/70 142/271/70 141/269/70 137/268/70
f 144/274/71 140/275/71 139/273/71 143/272/71
f 142/278/72 146/279/72 145/277/72 141/276/72
f 148/282/73 144/283/73 143/281/73 147/280/73
f 146/286/74 150/287/74 149/285/74 145/284/74
f 152/290/75 148/291/75 147/289/75 151/288/75
f 150/294/76 154/295/76 153/293/76 149/292/76
f 156/298/77 152/299/77 151/297/77 155/296/77
f 154/302/78 158/303/78 157/301/78 153/300/78
f 160/306/79 156/307/79 155/305/79 159/304/79
f 158/310/80 162/311/80 161/309/80 157/308/80
f 164/314/81 160/315/81 159/313/81 163/312/81
f 163/318/82 161/319/82 162/317/82 164/316/82
f 8/11/83 7/321/83 4/320/83 3/1/83
f 5/323/84 6/324/84 1/1/84 2/322/84
f 7/321/83 12/326/83 10/325/83 4/320/83
f 11/328/84 5/323/84 2/322/84 9/327/84
f 12/326/83 16/330/83 14/329/83 10/325/83
f 15/332/84 11/328/84 9/327/84 13/331/84
f 16/330/83 20/334/83 18/333/83 14/329/83
f 19/336/84 15/332/84 13/331/84 17/335/84
f 20/334/83 24/338/83 22/337/83 18/333/83
f 23/340/84 19/336/84 17/335/84 21/339/84
f 24/338/83 28/342/83 26/341/83 22/337/83
f 27/344/84 23/340/84 21/339/84 25/343/84
f 28/342/83 32/346/83 30/345/83 26/341/83
f 31/348/84 27/344/84 25/343/84 29/347/84
f 32/346/83 36/350/83 34/349/83 30/345/83
f 35/352/84 31/348/84 29/347/84 33/351/84
f 36/350/83 40/354/83 38/353/83 34/349/83
f 39/356/84 35/352/84 33/351/84 37/355/84
f 40/354/83 44/358/83 42/357/83 38/353/83
f 43/360/84 39/356/84 37/355/84 41/359/84
f 44/358/83 48/362/83 46/361/83 42/357/83
f 47/364/84 43/360/84 41/359/84 45/363/84
f 48/362/83 52/366/83 50/365/83 46/361/83
f 51/368/84 47/364/84 45/363/84 49/367/84
f 52/366/83 56/370/83 54/369/83 50/365/83
f 55/372/84 51/368/84 49/367/84 53/371/84
f 56/370/83 60/374/83 58/373/83 54/369/83
f 59/376/84 55/372/84 53/371/84 57/375/84
f 60/374/83 64/378/83 62/377/83 58/373/83
f 63/380/84 59/376/84 57/375/84 61/379/84
f 64/378/83 68/382/83 66/381/83 62/377/83
f 67/384/84 63/380/84 61/379/84 65/383/84
f 68/382/83 72/386/83 70/385/83 66/381/83
f 71/388/84 67/384/84 65/383/84 69/387/84
f 72/386/83 76/390/83 74/389/83 70/385/83
f 75/392/84 71/388/84 69/387/84 73/391/84
f 76/390/83 80/394/83 78/393/83 74/389/83
f 79/396/84 75/392/84 73/391/84 77/395/84
f 80/394/83 84/398/83 82/397/83 78/393/83
f 83/400/84 79/396/84 77/395/84 81/399/84
f 84/398/83 88/402/83 86/401/83 82/397/83
f 87/404/84 83/400/84 81/399/84 85/403/84
f 88/402/83 92/406/83 90/405/83 86/401/83
f 91/408/84 87/404/84 85/403/84 89/407/84
f 92/406/83 96/410/83 94/409/83 90/405/83
f 95/412/84 91/408/84 89/407/84 93/411/84
f 96/410/83 100/414/83 98/413/83 94/409/83
f 99/416/84 95/412/84 93/411/84 97/415/84
f 100/414/83 104/418/83 102/417/83 98/413/83
f 103/420/84 99/416/84 97/415/84 101/419/84
f 104/418/83 108/422/83 106/421/83 102/417/83
f 107/424/84 103/420/84 101/419/84 105/423/84
f 108/422/83 112/426/83 110/425/83 106/421/83
f 111/428/84 107/424/84 105/423/84 109/427/84
f 112/426/83 116/430/83 114/429/83 110/425/83
f 115/432/84 111/428/84 109/427/84 113/431/84
f 116/430/83 120/434/83 118/433/83 114/429/83
f 119/436/84 115/432/84 113/431/84 117/435/84
f 120/434/83 124/438/83 122/437/83 118/433/83
f 123/440/84 119/436/84 117/435/84 121/439/84
f 124/438/83 128/442/83 126/441/83 122/437/83
f 127/444/84 123/440/84 121/439/84 125/443/84
f 128/442/83 132/446/83 130/445/83 126/441/83
f 131/448/84 127/444/84 125/443/84 129/447/84
f 132/446/83 136/450/83 134/449/83 130/445/83
f 135/452/84 131/448/84 129/447/84 133/451/84
f 136/450/83 140/454/83 138/453/83 134/449/83
f 139/456/84 135/452/84 133/451/84 137/455/84
f 140/454/83 144/458/83 142/457/83 138/453/83
f 143/460/84 139/456/84 137/455/84 141/459/84
f 144/458/83 148/462/83 146/461/83 142/457/83
f 147/464/84 143/460/84 141/459/84 145/463/84
f 148/462/83 152/466/83 150/465/83 146/461/83
f 151/468/84 147/464/84 145/463/84 149/467/84
f 152/466/83 156/470/83 154/469/83 150/465/83
f 155/472/84 151/468/84 149/467/84 153/471/84
f 156/470/83 160/474/83 158/473/83 154/469/83
f 159/476/84 155/472/84 153/471/84 157/475/84
f 160/474/83 164/478/83 162/477/83 158/473/83
f 163/480/84 159/476/84 157/475/84 161/479/84

